Normalized EMG Linear Envelopes
nRows=238
nColumns=4

endheader
time	 med_gas_r	  soleus_r	 tib_ant_r	
1.43044	  0.039388	  0.266809	  0.056131	
1.46371	  0.038415	  0.269436	  0.055267	
1.49698	  0.037603	  0.271240	  0.054532	
1.53024	  0.037022	  0.272007	  0.054022	
1.56351	  0.036699	  0.271542	  0.053770	
1.59677	  0.036627	  0.269456	  0.053698	
1.63004	  0.036851	  0.266019	  0.053765	
1.66331	  0.037328	  0.261863	  0.054118	
1.69657	  0.037903	  0.257186	  0.054665	
1.72984	  0.038420	  0.252921	  0.055195	
1.7631	  0.038790	  0.250297	  0.055623	
1.79637	  0.038967	  0.249766	  0.056002	
1.82964	  0.039006	  0.250524	  0.056291	
1.8629	  0.038997	  0.251822	  0.056518	
1.89617	  0.038923	  0.252595	  0.056763	
1.92944	  0.038721	  0.252857	  0.056978	
1.9627	  0.038330	  0.253083	  0.057077	
1.99597	  0.037888	  0.254183	  0.057141	
2.02923	  0.037482	  0.256614	  0.057173	
2.0625	  0.037166	  0.259303	  0.057096	
2.09577	  0.037005	  0.260953	  0.056694	
2.12903	  0.036962	  0.262212	  0.056015	
2.1623	  0.036951	  0.264339	  0.055343	
2.19556	  0.036902	  0.267363	  0.054982	
2.22883	  0.036791	  0.270029	  0.054969	
2.2621	  0.036602	  0.271445	  0.055286	
2.29536	  0.036393	  0.271157	  0.055865	
2.32863	  0.036196	  0.269423	  0.056443	
2.3619	  0.035988	  0.267174	  0.056678	
2.39516	  0.035803	  0.265414	  0.056489	
2.42843	  0.035681	  0.264923	  0.055991	
2.46169	  0.035660	  0.265952	  0.055392	
2.49496	  0.035771	  0.268885	  0.054995	
2.52823	  0.036095	  0.273042	  0.055011	
2.56149	  0.036676	  0.276622	  0.055326	
2.59476	  0.037537	  0.278638	  0.055871	
2.62802	  0.038522	  0.279521	  0.056572	
2.66129	  0.039406	  0.279739	  0.057210	
2.69456	  0.040084	  0.279108	  0.057510	
2.72782	  0.040515	  0.277344	  0.057418	
2.76109	  0.040704	  0.274974	  0.057159	
2.79435	  0.040716	  0.272786	  0.056842	
2.82762	  0.040653	  0.271400	  0.056502	
2.86089	  0.040566	  0.270844	  0.056144	
2.89415	  0.040533	  0.269989	  0.055718	
2.92742	  0.040691	  0.268160	  0.055138	
2.96069	  0.041013	  0.265526	  0.054298	
2.99395	  0.041333	  0.262339	  0.053248	
3.02722	  0.041527	  0.259050	  0.052146	
3.06048	  0.041646	  0.256357	  0.051155	
3.09375	  0.041633	  0.254519	  0.050390	
3.12702	  0.041521	  0.253605	  0.049830	
3.16028	  0.041337	  0.253662	  0.049691	
3.19355	  0.041050	  0.255009	  0.050122	
3.22681	  0.040638	  0.258162	  0.050905	
3.26008	  0.040101	  0.263302	  0.051746	
3.29335	  0.039606	  0.269943	  0.052484	
3.32661	  0.039180	  0.277131	  0.053071	
3.35988	  0.038834	  0.284386	  0.053447	
3.39315	  0.038618	  0.291003	  0.053554	
3.42641	  0.038479	  0.296166	  0.053486	
3.45968	  0.038340	  0.298652	  0.053419	
3.49294	  0.038230	  0.298161	  0.053554	
3.52621	  0.038207	  0.295451	  0.053935	
3.55948	  0.038326	  0.291784	  0.054554	
3.59274	  0.038572	  0.288087	  0.055419	
3.62601	  0.038867	  0.284636	  0.056367	
3.65927	  0.039077	  0.281262	  0.057157	
3.69254	  0.039189	  0.278191	  0.057608	
3.72581	  0.039300	  0.275590	  0.057629	
3.75907	  0.039438	  0.273533	  0.057152	
3.79234	  0.039635	  0.272219	  0.056293	
3.8256	  0.039890	  0.271643	  0.055441	
3.85887	  0.040109	  0.271852	  0.054854	
3.89214	  0.040197	  0.272546	  0.054557	
3.9254	  0.040072	  0.273269	  0.054479	
3.95867	  0.039730	  0.274115	  0.054445	
3.99194	  0.039292	  0.274609	  0.054383	
4.0252	  0.038949	  0.274671	  0.054312	
4.05847	  0.038756	  0.273879	  0.054266	
4.09173	  0.038661	  0.272074	  0.054263	
4.125	  0.038606	  0.269767	  0.054306	
4.15827	  0.038586	  0.267462	  0.054294	
4.19153	  0.038578	  0.264074	  0.054068	
4.2248	  0.038571	  0.259359	  0.053623	
4.25806	  0.038689	  0.253888	  0.053158	
4.29133	  0.039049	  0.248478	  0.052839	
4.3246	  0.039624	  0.243875	  0.052820	
4.35786	  0.040289	  0.240920	  0.053147	
4.39113	  0.041043	  0.240589	  0.053705	
4.4244	  0.041775	  0.243596	  0.054285	
4.45766	  0.042234	  0.249776	  0.054733	
4.49093	  0.042366	  0.257996	  0.055184	
4.52419	  0.042231	  0.265852	  0.055746	
4.55746	  0.041819	  0.271824	  0.056336	
4.59073	  0.041276	  0.275979	  0.056826	
4.62399	  0.040748	  0.278531	  0.057353	
4.65726	  0.040289	  0.280117	  0.058091	
4.69052	  0.039924	  0.281233	  0.058914	
4.72379	  0.039778	  0.281802	  0.059776	
4.75706	  0.039901	  0.281342	  0.060582	
4.79032	  0.040243	  0.279878	  0.060927	
4.82359	  0.040767	  0.278296	  0.060507	
4.85685	  0.041483	  0.277147	  0.059471	
4.89012	  0.042282	  0.275456	  0.058219	
4.92339	  0.042922	  0.272361	  0.057080	
4.95665	  0.043263	  0.268742	  0.056269	
4.98992	  0.043319	  0.265617	  0.055843	
5.02319	  0.043304	  0.263369	  0.055753	
5.05645	  0.043410	  0.262102	  0.055977	
5.08972	  0.043569	  0.261652	  0.056481	
5.12298	  0.043583	  0.262076	  0.057090	
5.15625	  0.043339	  0.263674	  0.057633	
5.18952	  0.042859	  0.266197	  0.057872	
5.22278	  0.042299	  0.268236	  0.057605	
5.25605	  0.041785	  0.269240	  0.056957	
5.28931	  0.041428	  0.269342	  0.056256	
5.32258	  0.041240	  0.267990	  0.055724	
5.35585	  0.041265	  0.265086	  0.055380	
5.38911	  0.041433	  0.261559	  0.055280	
5.42238	  0.041628	  0.258574	  0.055541	
5.45565	  0.041747	  0.256490	  0.056209	
5.48891	  0.041638	  0.255459	  0.057208	
5.52218	  0.041338	  0.256112	  0.058319	
5.55544	  0.041097	  0.258609	  0.059464	
5.58871	  0.041193	  0.262379	  0.060585	
5.62198	  0.041604	  0.266142	  0.061482	
5.65524	  0.042076	  0.268738	  0.061965	
5.68851	  0.042456	  0.270258	  0.062042	
5.72177	  0.042585	  0.270957	  0.061598	
5.75504	  0.042408	  0.270761	  0.060554	
5.78831	  0.041991	  0.268905	  0.058974	
5.82157	  0.041416	  0.264864	  0.057061	
5.85484	  0.040736	  0.259374	  0.055077	
5.8881	  0.039923	  0.253814	  0.053291	
5.92137	  0.039101	  0.248924	  0.051877	
5.95464	  0.038440	  0.245464	  0.051031	
5.9879	  0.038098	  0.244035	  0.050963	
6.02117	  0.038127	  0.244640	  0.051627	
6.05444	  0.038460	  0.246956	  0.052784	
6.0877	  0.039047	  0.250260	  0.054162	
6.12097	  0.039811	  0.253812	  0.055424	
6.15423	  0.040636	  0.257314	  0.056394	
6.1875	  0.041459	  0.260374	  0.057073	
6.22077	  0.042190	  0.262105	  0.057398	
6.25403	  0.042673	  0.262271	  0.057410	
6.2873	  0.042784	  0.261126	  0.057347	
6.32056	  0.042518	  0.259035	  0.057493	
6.35383	  0.041969	  0.257343	  0.057877	
6.3871	  0.041206	  0.256928	  0.058413	
6.42036	  0.040323	  0.257226	  0.058983	
6.45363	  0.039373	  0.257750	  0.059193	
6.4869	  0.038483	  0.258705	  0.058865	
6.52016	  0.037861	  0.260295	  0.058288	
6.55343	  0.037706	  0.261629	  0.057657	
6.58669	  0.038007	  0.262128	  0.057087	
6.61996	  0.038553	  0.261934	  0.056647	
6.65323	  0.039140	  0.261367	  0.056262	
6.68649	  0.039636	  0.260929	  0.055887	
6.71976	  0.040010	  0.260951	  0.055517	
6.75302	  0.040328	  0.261493	  0.055034	
6.78629	  0.040722	  0.263116	  0.054519	
6.81956	  0.041197	  0.266093	  0.053960	
6.85282	  0.041741	  0.269708	  0.053275	
6.88609	  0.042305	  0.273548	  0.052473	
6.91935	  0.042746	  0.276760	  0.051638	
6.95262	  0.042880	  0.278458	  0.051009	
6.98589	  0.042664	  0.278661	  0.050908	
7.01915	  0.042213	  0.277920	  0.051426	
7.05242	  0.041652	  0.276823	  0.052369	
7.08569	  0.041049	  0.275508	  0.053435	
7.11895	  0.040445	  0.273801	  0.054503	
7.15222	  0.039909	  0.272530	  0.055532	
7.18548	  0.039539	  0.272240	  0.056498	
7.21875	  0.039361	  0.272832	  0.057341	
7.25202	  0.039335	  0.274064	  0.058090	
7.28528	  0.039416	  0.275913	  0.058906	
7.31855	  0.039518	  0.277570	  0.059697	
7.35181	  0.039598	  0.278262	  0.060179	
7.38508	  0.039600	  0.277290	  0.060195	
7.41835	  0.039401	  0.274874	  0.059824	
7.45161	  0.038928	  0.271628	  0.059274	
7.48488	  0.038300	  0.268247	  0.058646	
7.51815	  0.037720	  0.264986	  0.058036	
7.55141	  0.037380	  0.262548	  0.057451	
7.58468	  0.037352	  0.261435	  0.056852	
7.61794	  0.037641	  0.260965	  0.056384	
7.65121	  0.038262	  0.260606	  0.056289	
7.68448	  0.039077	  0.260028	  0.056455	
7.71774	  0.039966	  0.259383	  0.056635	
7.75101	  0.040917	  0.259181	  0.056716	
7.78427	  0.041856	  0.260256	  0.056518	
7.81754	  0.042705	  0.262798	  0.056108	
7.85081	  0.043433	  0.266231	  0.055774	
7.88407	  0.044028	  0.269715	  0.055667	
7.91734	  0.044417	  0.272377	  0.055746	
7.9506	  0.044564	  0.273856	  0.055986	
7.98387	  0.044458	  0.274277	  0.056335	
8.01714	  0.044037	  0.274022	  0.056847	
8.0504	  0.043271	  0.272634	  0.057567	
8.08367	  0.042348	  0.270139	  0.058647	
8.11694	  0.041589	  0.266983	  0.060118	
8.1502	  0.041073	  0.263737	  0.061735	
8.18347	  0.040735	  0.260991	  0.063143	
8.21673	  0.040602	  0.259493	  0.063963	
8.25	  0.040696	  0.259657	  0.063919	
8.28327	  0.041016	  0.260652	  0.062986	
8.31653	  0.041384	  0.262177	  0.061433	
8.3498	  0.041612	  0.264296	  0.059371	
8.38306	  0.041633	  0.267010	  0.056980	
8.41633	  0.041583	  0.270165	  0.054741	
8.4496	  0.041626	  0.273613	  0.052952	
8.48286	  0.041870	  0.277282	  0.051703	
8.51613	  0.042275	  0.280623	  0.051077	
8.5494	  0.042670	  0.283218	  0.051000	
8.58266	  0.042920	  0.285406	  0.051138	
8.61593	  0.043014	  0.287289	  0.051248	
8.64919	  0.043012	  0.288746	  0.051239	
8.68246	  0.043059	  0.289469	  0.051120	
8.71573	  0.043245	  0.289260	  0.051000	
8.74899	  0.043450	  0.288173	  0.050974	
8.78226	  0.043513	  0.286563	  0.051094	
8.81552	  0.043352	  0.285366	  0.051510	
8.84879	  0.043104	  0.284654	  0.052218	
8.88206	  0.042897	  0.283679	  0.053047	
8.91532	  0.042702	  0.281468	  0.053884	
8.94859	  0.042426	  0.277828	  0.054693	
8.98185	  0.042090	  0.273282	  0.055434	
9.01512	  0.041728	  0.268857	  0.056189	
9.04839	  0.041395	  0.265807	  0.056994	
9.08165	  0.041120	  0.263796	  0.057741	
9.11492	  0.040951	  0.261951	  0.058341	
9.14819	  0.040904	  0.259911	  0.058860	
9.18145	  0.040977	  0.258044	  0.059190	
9.21472	  0.041133	  0.256440	  0.059177	
9.24798	  0.041310	  0.255555	  0.058884	
9.28125	  0.041489	  0.255609	  0.058414	
9.31452	  0.041727	  0.256555	  0.057824	
